<?xml version="1.0" encoding="UTF-8"?>
<svg id="Lager_1" data-name="Lager 1" xmlns="http://www.w3.org/2000/svg" viewBox="0 0 293.1 270.54">
  <symbol id="cat-ears" viewBox="0 0 293.1 270.54">
  <defs>
    <style>
      .cls-1 {
        fill: #1d1d1b;
        stroke: #1d1d1b;
        stroke-miterlimit: 10;
      }
    </style>
  </defs>
  <path class="cls-1" d="M146.4,269.57c-21.46,1.21-33.12-.09-42.67-2-22.25-4.46-37.9-13.21-42.67-16-11.59-6.8-53.23-33.75-59.67-76.67-4.96-33.06,12.19-67.37,12.33-67.33,.05,.01-.76,4.76-1.04,4.73-1.32-.15-1.03-105.41,25.04-110.73,1.91-.39,4.61,.41,10,2,5.33,1.57,24.81,8.07,37.96,26.25,2.66,3.68,10.04,12.42,10.04,12.42h0c-15.18,3.83,20.92-5.54,21.16-5.59,12.91-3,23.06-3.99,25.58-4.22,13.32-1.22,19.98-1.83,28.6-.19,15.73,3,20.16,9.97,28,6.67,6.09-2.57,12.67-10.67,12.67-10.67h0c-12.08,11.46,25.74-31.94,41.76-27.4,13.72,3.89,25.17,50.98,20.61,37.47h0s3.16,10.77,4.42,21.31c.87,7.3,.12,6.2,.64,25.78,.09,3.19,.25,6.89,.57,11.5,.11,1.6,1.08,15.41,1.08,15.41,16.15,37.3,11,64.05,11,64.05-1.99,10.32-5.91,16.96-12.75,28.53-5.43,9.19-17.62,29.82-39.33,44.67-23.47,16.05-46.76,17.37-93.33,20Z"/>
  </symbol>
</svg>