<?xml version="1.0" encoding="utf-8"?>
<!-- Generator: Adobe Illustrator 26.5.0, SVG Export Plug-In . SVG Version: 6.00 Build 0)  -->
<svg version="1.1" id="Lager_1" xmlns="http://www.w3.org/2000/svg" xmlns:xlink="http://www.w3.org/1999/xlink" x="0px" y="0px"
	 viewBox="0 0 300 300" style="enable-background:new 0 0 300 300;" xml:space="preserve">
	 <symbol id="svg-cat viewBox="0 0 300 300">
<style type="text/css">
	.st0{stroke:#000000;stroke-miterlimit:10;}
</style>
<path class="st0" d="M149.85,284.63c-21.46,1.21-33.12-0.09-42.67-2c-22.25-4.46-37.9-13.21-42.67-16
	c-11.59-6.8-53.23-33.75-59.67-76.67c-4.96-33.06,12.19-67.37,12.33-67.33c0.05,0.01-0.76,4.76-1.04,4.73
	c-1.32-0.15-1.03-105.41,25.04-110.73c1.91-0.39,4.61,0.41,10,2c5.33,1.57,24.81,8.07,37.96,26.25C91.8,48.55,99.18,57.3,99.18,57.3
	l0,0c-15.18,3.83,20.92-5.54,21.16-5.59c12.91-3,23.06-3.99,25.58-4.22c13.32-1.22,19.98-1.83,28.6-0.19c15.73,3,20.16,9.97,28,6.67
	c6.09-2.57,12.67-10.67,12.67-10.67l0,0c-12.08,11.46,25.74-31.94,41.76-27.4c13.72,3.89,25.17,50.98,20.61,37.47l0,0
	c0,0,3.16,10.77,4.42,21.31c0.87,7.3,0.12,6.2,0.64,25.78c0.09,3.19,0.25,6.89,0.57,11.5c0.11,1.6,1.08,15.41,1.08,15.41
	c16.15,37.3,11,64.05,11,64.05c-1.99,10.32-5.91,16.96-12.75,28.53c-5.43,9.19-17.62,29.82-39.33,44.67
	C219.72,280.68,196.43,282,149.85,284.63z"/>
	</symbol>
</svg>
